<svg xmlns="http://www.w3.org/2000/svg" width="685" height="250" viewBox="0 0 685 250" version="1.1">
	<path d="M 289 36.093 L 289 72.185 283.790 67.501 C 273.088 57.879, 261.446 54.038, 242.910 54.015 C 215.760 53.980, 195.809 64.940, 186.150 85.195 C 178.563 101.106, 176.724 113.868, 176.672 151 C 176.629 180.856, 177.647 192.049, 181.672 205.973 C 188.160 228.422, 201.475 241.204, 224.410 247.001 C 233.398 249.273, 250.449 249.715, 259.201 247.903 C 267.241 246.239, 278.189 240.594, 284.417 234.902 L 290 229.799 290 238.400 L 290 247 313.500 247 L 337 247 337 123.500 L 337 0 313 0 L 289 0 289 36.093 M 56.121 55.071 C 48.388 56.436, 37.712 60.338, 31.201 64.179 C 25.410 67.595, 9 82.827, 9 84.786 C 9 85.631, 33.968 104.154, 40.796 108.374 C 41.619 108.883, 44.167 107.209, 48.071 103.595 C 55.870 96.374, 61.520 94.562, 76 94.634 C 90.340 94.705, 96.758 96.657, 102.884 102.809 C 108.560 108.509, 110 112.846, 110 124.240 L 110 132.748 80.750 133.259 C 55.209 133.704, 50.485 134.037, 43.500 135.884 C 20.292 142.019, 5.833 156.004, 1.511 176.500 C -4.112 203.163, 7.851 230.979, 29.489 241.553 C 40.959 247.159, 47.503 248.450, 64.500 248.463 C 84.786 248.478, 94.015 245.626, 106.452 235.496 L 112 230.977 112 238.988 L 112 247 135.567 247 L 159.134 247 158.762 177.750 C 158.403 110.789, 158.320 108.247, 156.263 100.856 C 151.287 82.973, 141.353 70.609, 126 63.189 C 112.092 56.467, 103.681 54.833, 81 54.450 C 70.275 54.269, 59.079 54.548, 56.121 55.071 M 415.500 55.598 C 375.633 64.429, 351.966 100.167, 352.008 151.474 C 352.026 172.909, 355.493 190.762, 362.562 205.817 C 370.088 221.846, 380.676 232.835, 395.500 240.004 C 408.368 246.228, 417.014 248.082, 436 248.690 C 467.563 249.701, 484.901 244.091, 505.795 226.107 C 509.758 222.697, 513 219.553, 513 219.122 C 513 218.690, 506.476 212.150, 498.503 204.588 L 484.006 190.839 478.868 195.334 C 468.398 204.493, 457.883 208.189, 442.035 208.281 C 430.699 208.346, 423.331 206.450, 416.369 201.673 C 407.135 195.338, 401.480 185.103, 399.566 171.258 L 398.979 167.016 458.739 166.758 L 518.500 166.500 518.387 147.500 C 518.296 132.182, 517.872 126.723, 516.198 119.328 C 509.007 87.552, 489.212 65.192, 460.973 56.949 C 450.944 54.022, 425.967 53.280, 415.500 55.598 M 580.500 55.653 C 565.070 58.938, 554.331 64.953, 542.792 76.774 C 538.349 81.325, 534.891 85.218, 535.107 85.427 C 536.041 86.327, 568.147 109, 568.489 109 C 568.697 109, 571.141 106.784, 573.922 104.076 C 582.291 95.925, 595.362 92.713, 610.971 94.973 C 629.650 97.679, 637 106.167, 637 125.033 L 637 132.748 607.750 133.277 C 582.598 133.732, 577.345 134.098, 570.260 135.886 C 548.117 141.473, 533.640 154.926, 528.489 174.703 C 526.364 182.860, 526.582 197.046, 528.975 206.404 C 536.420 235.511, 560.033 250.406, 596 248.681 C 612.604 247.885, 622.289 244.506, 632.500 235.948 L 637.500 231.757 637.792 239.379 L 638.084 247 661.580 247 L 685.075 247 684.788 175.750 L 684.500 104.500 681.675 96.500 C 680.121 92.100, 677.902 86.925, 676.743 85 C 667.451 69.567, 650.796 59.416, 628.341 55.500 C 617.055 53.532, 590.058 53.618, 580.500 55.653 M 423.396 95.363 C 410.936 99.431, 401.952 111.451, 400.143 126.475 L 399.358 133 435.179 133 L 471 133 471 129.105 C 471 120.171, 464.543 106.339, 457.977 101.210 C 451.564 96.200, 446.775 94.627, 437 94.321 C 430.983 94.132, 425.995 94.514, 423.396 95.363 M 245 98.537 C 230.246 103.118, 224.994 116.859, 225.008 150.838 C 225.021 184.148, 228.979 196.405, 241.746 202.675 C 246.834 205.173, 248.599 205.500, 257 205.500 C 265.758 205.500, 266.930 205.259, 272 202.416 C 278.283 198.892, 283.174 192.522, 285.432 184.918 C 289.413 171.510, 290.025 137.617, 286.557 122.496 C 283.557 109.408, 277.142 101.352, 267.386 98.416 C 261.500 96.644, 250.910 96.701, 245 98.537 M 58.459 169.367 C 52.022 172.365, 48.459 176.631, 47.100 182.971 C 44.631 194.480, 50.643 204.899, 61.583 208.073 C 69.224 210.291, 86.111 209.754, 93.174 207.070 C 105.507 202.382, 110 194.305, 110 176.818 L 110 167 86.750 167.010 C 64.462 167.019, 63.291 167.117, 58.459 169.367 M 586.275 168.804 C 580.669 171.054, 577.259 174.216, 574.947 179.309 C 570.761 188.528, 574.212 200.717, 582.347 205.442 C 594.482 212.491, 618.358 210.718, 628.222 202.036 C 634.529 196.484, 636.195 191.851, 636.773 178.250 L 637.252 167 613.876 167.054 C 594.315 167.100, 589.810 167.386, 586.275 168.804" stroke="none" fill="#1a1a1a" fill-rule="evenodd"/>
</svg>